<svg width="18" height="18" viewBox="0 0 18 18" fill="none" xmlns="http://www.w3.org/2000/svg">
<path fill-rule="evenodd" clip-rule="evenodd" d="M12.8862 13.2114C12.8144 12.9834 12.6764 12.785 12.4916 12.6444C12.3069 12.5039 12.0849 12.4284 11.8571 12.4286H10.6222V10.3771C11.161 10.1479 11.6505 9.80663 12.0618 9.37372C12.4731 8.9408 12.7977 8.42506 13.0162 7.85714C13.217 7.33195 13.3235 6.77197 13.3303 6.20571V2.71429C13.3303 2.25963 13.1591 1.82359 12.8544 1.5021C12.5497 1.18061 12.1364 1 11.7054 1H6.28908C5.85812 1 5.44482 1.18061 5.14009 1.5021C4.83537 1.82359 4.66417 2.25963 4.66417 2.71429V6.20571C4.66413 6.77053 4.7633 7.33046 4.95665 7.85714C5.17764 8.42721 5.50554 8.94428 5.92065 9.37732C6.33577 9.81036 6.82955 10.1504 7.37235 10.3771V12.4286H6.13742C5.90965 12.4284 5.68761 12.5039 5.50287 12.6444C5.31812 12.785 5.18006 12.9834 5.10831 13.2114L4.62626 14.7429C4.54479 15.0003 4.52243 15.2745 4.56102 15.5429C4.59961 15.8112 4.69805 16.0661 4.84824 16.2865C4.99843 16.5068 5.19607 16.6864 5.42491 16.8105C5.65374 16.9345 5.90722 16.9995 6.1645 17H11.83C12.0873 16.9995 12.3408 16.9345 12.5696 16.8105C12.7984 16.6864 12.9961 16.5068 13.1463 16.2865C13.2965 16.0661 13.3949 15.8112 13.4335 15.5429C13.4721 15.2745 13.4497 15.0003 13.3682 14.7429L12.8862 13.2114ZM3.70818 2.7133H1.54164C1.39798 2.7133 1.26022 2.77351 1.15864 2.88067C1.05706 2.98783 1 3.13318 1 3.28473V3.85616C1.00208 4.75741 1.29259 5.6315 1.82444 6.33678C2.35629 7.04205 3.09831 7.53716 3.93025 7.74187C3.78418 7.24399 3.70933 6.72591 3.70818 6.20473V2.7133ZM14.2918 2.71328H16.4584C16.602 2.71328 16.7398 2.77349 16.8414 2.88065C16.9429 2.98781 17 3.13316 17 3.28471V3.85614C16.9979 4.75739 16.7074 5.63148 16.1756 6.33676C15.6437 7.04203 14.9017 7.53714 14.0698 7.74185C14.2158 7.24397 14.2907 6.72589 14.2918 6.20471V2.71328ZM8.18417 6.45991C8.2086 6.37068 8.18417 6.2939 8.12285 6.24305L7.60785 5.7834C7.47275 5.66874 7.54653 5.42645 7.7305 5.41349L8.39258 5.36264C8.46588 5.36264 8.53966 5.31179 8.56409 5.23502L8.82184 4.59689C8.89562 4.41842 9.12846 4.41842 9.20223 4.59689L9.45998 5.23502C9.48442 5.31179 9.55771 5.34968 9.63149 5.36264L10.2696 5.41349C10.4536 5.42595 10.5274 5.65577 10.3923 5.7834L9.88923 6.23008C9.84036 6.2939 9.81545 6.37017 9.82791 6.44694L9.98744 7.12346C10.0243 7.30243 9.84037 7.45548 9.68083 7.35328L9.11647 6.99583C9.05515 6.95745 8.96939 6.95745 8.90807 6.99583L8.34371 7.35328C8.18417 7.45549 8.00021 7.30193 8.0371 7.12346L8.18417 6.45991Z" fill="#EF0D33"/>
</svg>
