<svg width="18" height="18" viewBox="0 0 18 18" fill="none" xmlns="http://www.w3.org/2000/svg">
<g clip-path="url(#clip0)">
<path fill-rule="evenodd" clip-rule="evenodd" d="M8.59121 10.8182C6.77285 12.6366 6.04583 14.8184 6.50015 17.4543C6.59085 17.7271 6.22734 17.9085 6.04594 17.7271C-2.59046 9.90899 11.5916 5.72687 8.59132 0.54557C8.40921 0.272762 8.68202 -4.55007e-05 8.95483 0.18206C13.1362 2.63672 13.4091 6.54596 12.1365 10.7275C12.5907 10.1819 12.7728 9.54559 12.7728 8.81864C12.7728 8.54583 13.1364 8.45513 13.2271 8.72794C15.4996 12.1823 15.0454 15.4554 11.9544 18.0915C11.7723 18.2736 11.5002 18.0915 11.5002 17.8187C11.6823 16.9096 11.6823 16.0911 11.2274 15.3641C11.1367 16.0911 10.7732 16.546 10.1361 17.1824C9.95402 17.3645 9.59051 17.1824 9.68192 16.9096C10.1361 14.6371 8.49997 13.1824 8.40926 11.0006L8.59121 10.8182Z" fill="#EF0D33"/>
</g>
<defs>
<clipPath id="clip0">
<rect width="18" height="18" fill="white"/>
</clipPath>
</defs>
</svg>
