<?xml version="1.0" encoding="UTF-8" standalone="no"?>
<!DOCTYPE svg PUBLIC "-//W3C//DTD SVG 1.1//EN" "http://www.w3.org/Graphics/SVG/1.1/DTD/svg11.dtd">
<svg xmlns="http://www.w3.org/2000/svg" xmlns:xlink="http://www.w3.org/1999/xlink" version="1.1" width="30pt" height="30pt" viewBox="0 0 30 30">
<g enable-background="new">
<path transform="matrix(-1,0,0,1,20.041459,18.149415)" d="M 10.022078 1.019758 C 9.031837 3.119758 7.172077 4.560059 5.041477 4.560059 C 2.910876 4.560059 1.051175 3.119818 .060875 1.019758 C -.148892 .539278 .210875 .000237 .720635 .000237 L 9.360938 .000237 C 9.871868 .000237 10.231629 .569757 10.02187 1.019758 L 10.022078 1.019758 Z " fill="#ffffff"/>
<path transform="matrix(-1,0,0,1,29.250004,.75)" d="M 14.250001 28.5 C 6.3903 28.5 0 22.1097 0 14.249999 C 0 6.390299 6.3903 -.000002 14.250001 -.000002 C 22.109702 -.000002 28.500002 6.390299 28.500002 14.249999 C 28.500002 22.1097 22.109702 28.5 14.250001 28.5 Z M 14.250001 2.640299 C 7.8597 2.640299 2.6403 7.859699 2.6403 14.249999 C 2.6403 20.6403 7.8597 25.8597 14.250001 25.8597 C 20.6403 25.8597 25.859702 20.6403 25.859702 14.249999 C 25.859702 7.859699 20.6403 2.640299 14.250001 2.640299 Z " fill="#ffffff"/>
<path transform="matrix(-1,0,0,1,12.119583,9.930176)" d="M 3.65979 1.829189 C 3.65979 .819029 2.84064 -.00012 1.82931 -.00012 C .819151 -.00012 0 .819029 0 1.829189 C 0 2.840519 .819151 3.659668 1.82931 3.659668 C 2.84064 3.659668 3.65979 2.840519 3.65979 1.829189 Z " fill="#ffffff"/>
<path transform="matrix(-1,0,0,1,21.54042,9.930176)" d="M 3.659789 1.829189 C 3.659789 .819029 2.84064 -.00012 1.83048 -.00012 C .81915 -.00012 0 .819029 0 1.829189 C 0 2.840519 .81915 3.659668 1.83048 3.659668 C 2.84064 3.659668 3.659789 2.840519 3.659789 1.829189 " fill="#ffffff"/>
</g>
</svg>
