<svg width="119" height="119" viewBox="0 0 119 119" fill="none" xmlns="http://www.w3.org/2000/svg">
<path d="M111.726 90.7981H111.8C112.995 90.836 113.999 91.798 113.999 93.0585V107.738C113.999 108.93 112.93 110 111.727 110H7.2744C6.07096 110 5.00195 108.93 5.00195 107.738V81.2616C5.00195 80.0702 6.07096 79 7.2744 79H24.1566H41.0388H42.0388V78V61.2616C42.0388 60.0702 43.1078 59 44.3112 59H74.6896C75.893 59 76.962 60.0702 76.962 61.2616V89.7981V90.7981H77.962H111.726Z" stroke="white" stroke-width="2"/>
<path d="M52.9167 52.8542L52.9124 52.8569C52.5569 53.0761 52.2098 53.0244 51.9422 52.823C51.6599 52.6105 51.5033 52.2562 51.5817 51.8795L52.9331 46.0086C53.2477 44.8677 52.9188 43.7776 52.0368 43.0637L47.2922 38.9859L47.2828 38.9778L47.2732 38.9699C46.7635 38.5534 46.9994 37.5088 47.8409 37.4517L47.8409 37.4517L47.847 37.4513L53.9304 37.0014C54.987 36.9838 56.032 36.2987 56.4084 35.2218L58.7741 29.5819C59.1099 28.806 60.1114 28.8061 60.4472 29.5819L62.8129 35.2218C63.2244 36.3992 64.3534 36.8503 65.1656 36.9877L65.2105 36.9953L65.2559 36.9988L71.1502 37.4511L71.1502 37.4511L71.1617 37.4519C71.947 37.5031 72.3002 38.4334 71.6962 38.9958L67.0632 42.9574L66.9902 43.0198L66.9304 43.095C66.3444 43.8319 65.9882 44.7895 66.1606 45.8124L66.1667 45.8486L66.1754 45.8842L67.6449 51.8849C67.721 52.2627 67.5635 52.6141 67.2838 52.8243C67.0171 53.0248 66.6697 53.0768 66.3132 52.8568L66.3089 52.8542L61.096 49.6748L61.0915 49.6721C60.2075 49.1392 59.018 49.1392 58.134 49.6721L58.1296 49.6748L52.9167 52.8542Z" stroke="#EF0D33" stroke-width="2"/>
<path d="M15.5109 62.9275L15.511 62.9274L15.502 62.9206L10.2737 58.9556C10.0159 58.7461 9.93495 58.4213 10.0505 58.0841C10.1655 57.7485 10.4553 57.4805 10.8898 57.4518L10.8898 57.4519L10.8957 57.4514L17.1548 57.0014C18.2135 56.9848 19.2856 56.3162 19.676 55.2306L22.1092 49.5912C22.4603 48.8029 23.5398 48.803 23.8909 49.5913L26.324 55.2307C26.7487 56.4112 27.9046 56.8538 28.7232 56.9885L28.7682 56.9959L28.8138 56.9991L35.1043 57.4514L35.1043 57.4515L35.1128 57.452C35.9892 57.5076 36.2768 58.4535 35.6884 58.9866L30.9226 62.9484L30.8923 62.9736L30.8641 63.0011C30.1411 63.7053 29.8248 64.8412 29.9939 65.8171L30.0003 65.8541L30.0095 65.8906L31.521 71.8908C31.6767 72.6451 30.8345 73.2931 30.0962 72.8503L30.0919 72.8478L24.7298 69.6683L24.7254 69.6657C23.8305 69.1413 22.629 69.1413 21.7342 69.6657L21.7298 69.6684L16.3677 72.8478L16.3634 72.8503C15.6263 73.2924 14.783 72.6421 14.9385 71.8911L16.4458 65.9073C16.7787 64.7433 16.4263 63.6381 15.5109 62.9275Z" stroke="#EF0D33" stroke-width="2"/>
<path d="M88.5109 74.9275L88.511 74.9274L88.502 74.9206L83.2737 70.9556C83.0159 70.7461 82.9349 70.4213 83.0505 70.0841C83.1655 69.7485 83.4553 69.4805 83.8898 69.4518L83.8898 69.4519L83.8957 69.4514L90.1548 69.0014C91.2135 68.9848 92.2856 68.3162 92.676 67.2306L95.1091 61.5913C95.4602 60.8029 96.5398 60.8029 96.8909 61.5913L99.324 67.2307C99.7487 68.4112 100.905 68.8538 101.723 68.9885L101.768 68.9959L101.814 68.9991L108.104 69.4514L108.104 69.4515L108.113 69.452C108.989 69.5076 109.277 70.4535 108.688 70.9866L103.923 74.9484L103.892 74.9736L103.864 75.0011C103.141 75.7053 102.825 76.8412 102.994 77.8171L103 77.8541L103.01 77.8906L104.521 83.8908C104.677 84.6451 103.834 85.2931 103.096 84.8503L103.092 84.8478L97.7298 81.6683L97.7254 81.6657C96.8305 81.1413 95.629 81.1413 94.7342 81.6657L94.7298 81.6684L89.3677 84.8478L89.3634 84.8503C88.6263 85.2924 87.783 84.6421 87.9385 83.8911L89.4458 77.9073C89.7787 76.7433 89.4263 75.6381 88.5109 74.9275Z" stroke="#EF0D33" stroke-width="2"/>
</svg>
