<svg width="18" height="18" viewBox="0 0 18 18" fill="none" xmlns="http://www.w3.org/2000/svg">
<g clip-path="url(#clip0)">
<path d="M6.2002 12.5V18L9.15901 16.076C9.35477 15.9474 9.64562 15.9474 9.84698 16.076L12.8002 18V12.5C11.7934 12.9946 10.6916 13.2765 9.5002 13.2765C8.30884 13.2765 7.20697 12.9946 6.2002 12.5Z" fill="#EF0D33"/>
<path d="M9.73619 5.16254L9.48182 4.6312L9.21615 5.15689C9.13136 5.32082 8.97308 5.43952 8.78655 5.46213L8.20433 5.54127L8.62262 5.95391C8.75263 6.08392 8.81481 6.27046 8.78089 6.45699L8.67915 7.03356L9.19919 6.76223C9.27833 6.72267 9.36877 6.70006 9.45921 6.70006C9.54965 6.70006 9.64009 6.72267 9.72488 6.76789L10.2449 7.04487L10.1488 6.46265C10.1206 6.28176 10.1827 6.09523 10.3128 5.96522L10.7367 5.55823L10.1545 5.46779C9.9736 5.44518 9.81532 5.33212 9.73619 5.16254Z" fill="#EF0D33"/>
<path d="M9.5 0.400391C6.46454 0.400391 4 2.87059 4 5.90039C4 8.93585 6.4702 11.4004 9.5 11.4004C12.5298 11.4004 15 8.93019 15 5.90039C15 2.87059 12.5355 0.400391 9.5 0.400391ZM12.3715 5.75342L11.3371 6.74828L11.5689 8.16709C11.6028 8.38189 11.5123 8.59104 11.3371 8.72105C11.241 8.78888 11.1223 8.82845 11.0093 8.82845C10.9188 8.82845 10.8284 8.80584 10.7436 8.76062L9.47739 8.0823L8.1999 8.74366C8.00771 8.83975 7.77595 8.82279 7.60637 8.69844C7.43114 8.56843 7.34635 8.35363 7.38592 8.14448L7.64029 6.73133L6.61716 5.71951C6.46454 5.56689 6.40802 5.34078 6.47585 5.13729C6.54368 4.93379 6.72456 4.78682 6.93371 4.75291L8.35817 4.55507L9.00257 3.26627C9.09866 3.07408 9.29651 2.94972 9.50565 2.94972H9.51131C9.72611 2.94972 9.92395 3.07973 10.0144 3.27757L10.6418 4.57768L12.0606 4.79248C12.2754 4.82639 12.4507 4.97336 12.5128 5.18251C12.5863 5.38035 12.5298 5.60645 12.3715 5.75342Z" fill="#EF0D33"/>
</g>
<defs>
<clipPath id="clip0">
<rect width="18" height="18" fill="white"/>
</clipPath>
</defs>
</svg>
