<svg width="22" height="22" viewBox="0 0 22 22" fill="none" xmlns="http://www.w3.org/2000/svg">
<g clip-path="url(#clip0)">
<path fill-rule="evenodd" clip-rule="evenodd" d="M8.06595 0C6.84982 0.000897044 5.86559 0.985851 5.86648 2.19955C5.86559 3.41325 6.85071 4.39821 8.06684 4.3991H10.2672V2.20045C10.2681 0.986748 9.28297 0.00179409 8.06595 0C8.06684 0 8.06684 0 8.06595 0V0ZM8.06595 5.86667H2.20012C0.983988 5.86756 -0.00114052 6.85252 -0.000241684 8.06622C-0.00203936 9.27992 0.983089 10.2649 2.19922 10.2667H8.06595C9.28208 10.2658 10.2672 9.28082 10.2663 8.06712C10.2672 6.85252 9.28208 5.86756 8.06595 5.86667V5.86667Z" fill="white"/>
<path fill-rule="evenodd" clip-rule="evenodd" d="M22.0001 8.06622C22.001 6.85252 21.0158 5.86756 19.7997 5.86667C18.5835 5.86756 17.5984 6.85252 17.5993 8.06622V10.2667H19.7997C21.0158 10.2658 22.001 9.28082 22.0001 8.06622ZM16.1333 8.06622V2.19955C16.1342 0.986748 15.1499 0.00179409 13.9338 0C12.7176 0.000897044 11.7325 0.985851 11.7334 2.19955V8.06622C11.7316 9.27992 12.7167 10.2649 13.9329 10.2667C15.149 10.2658 16.1342 9.28082 16.1333 8.06622Z" fill="white"/>
<path fill-rule="evenodd" clip-rule="evenodd" d="M13.9329 22.0002C15.149 21.9993 16.1342 21.0144 16.1333 19.8007C16.1342 18.5869 15.149 17.602 13.9329 17.6011H11.7325V19.8007C11.7316 21.0135 12.7168 21.9984 13.9329 22.0002ZM13.9329 16.1326H19.7996C21.0158 16.1317 22.0009 15.1467 22 13.933C22.0018 12.7193 21.0167 11.7343 19.8005 11.7325H13.9338C12.7177 11.7334 11.7325 12.7184 11.7334 13.9321C11.7325 15.1467 12.7168 16.1317 13.9329 16.1326V16.1326Z" fill="white"/>
<path fill-rule="evenodd" clip-rule="evenodd" d="M6.14593e-07 13.9327C-0.000898225 15.1464 0.98423 16.1314 2.20036 16.1323C3.41649 16.1314 4.40162 15.1464 4.40072 13.9327V11.7332H2.20036C0.98423 11.7341 -0.000898225 12.719 6.14593e-07 13.9327ZM5.86673 13.9327V19.7995C5.86493 21.0132 6.85006 21.9981 8.06619 21.9999C9.28232 21.999 10.2674 21.0141 10.2665 19.8004V13.9345C10.2683 12.7208 9.28322 11.7358 8.06709 11.7341C6.85006 11.7341 5.86583 12.719 5.86673 13.9327C5.86673 13.9336 5.86673 13.9327 5.86673 13.9327Z" fill="white"/>
</g>
<defs>
<clipPath id="clip0">
<rect width="22" height="22" fill="white"/>
</clipPath>
</defs>
</svg>
