<svg xmlns="http://www.w3.org/2000/svg" viewBox="0 0 83.86 82.78"><defs><style>.cls-1{fill:#ef0d33;}</style></defs><g id="Layer_2" data-name="Layer 2"><g id="hands"><path id="left" class="cls-1" d="M61.92,27a4.12,4.12,0,0,0-3.15-.08c.16.7.3,1.37.4,2,2.56-.92,3,.91.65,2.77a5.12,5.12,0,0,0,.89,1.84c1.75-1.28,1.18-4,1.51-6.34A2.11,2.11,0,0,0,61.92,27Zm.69-12.63c-1.25-3.73-5.3-4-7.4-.51l.64,2.29c1.75-2,3.29-4.44,4.82-1.28-.08,1.85-2.74,3.25-3.79,4.87.22.76.43,1.52.64,2.29C59.17,19.48,63.19,17.64,62.61,14.35ZM51.45,27.21c-.05-.33-.13-.69-.21-1.08l-1.19,1.36a7.2,7.2,0,0,0,1.24,1.61C51.79,28.64,51.54,28.22,51.45,27.21Zm-1.88-6.87-2.34,2.71c.38.62.76,1.21,1.12,1.76l1.91-2.22C50,21.85,49.81,21.09,49.57,20.34Zm0,0-2.34,2.71c.38.62.76,1.21,1.12,1.76l1.91-2.22C50,21.85,49.81,21.09,49.57,20.34Zm0,0-2.34,2.71c.38.62.76,1.21,1.12,1.76l1.91-2.22C50,21.85,49.81,21.09,49.57,20.34Zm0,0-2.34,2.71c.38.62.76,1.21,1.12,1.76l1.91-2.22C50,21.85,49.81,21.09,49.57,20.34Zm-1.82-6.56s0-.08,0-.11c-1.18,1.81-2.3,3.55-3.25,5,.38.61.78,1.23,1.18,1.86.78-1.23,1.71-2.67,2.71-4.21A26.13,26.13,0,0,1,47.75,13.78ZM53,2.84C47-.91,44.78,9.07,41,13.23l1.18,1.85C44.9,11.75,47.71,5,50.38,4c3.75.51,1.82,3.26.28,5.28a3.8,3.8,0,0,1,2.19.33C54.56,7.51,55.73,4.69,53,2.84Zm-3.43,17.5-2.34,2.71c.38.62.76,1.21,1.12,1.76l1.91-2.22C50,21.85,49.81,21.09,49.57,20.34Zm-1.82-6.56s0-.08,0-.11c-1.18,1.81-2.3,3.55-3.25,5,.38.61.78,1.23,1.18,1.86.78-1.23,1.71-2.67,2.71-4.21A26.13,26.13,0,0,1,47.75,13.78Zm1.82,6.56-2.34,2.71c.38.62.76,1.21,1.12,1.76l1.91-2.22C50,21.85,49.81,21.09,49.57,20.34Zm0,0-2.34,2.71c.38.62.76,1.21,1.12,1.76l1.91-2.22C50,21.85,49.81,21.09,49.57,20.34Zm-13.2-.15a3.61,3.61,0,0,1-1.23,1.26c0-.07-.3-.49,0-2.33,0-.19.08-.38.12-.59-.49-.78-1-1.55-1.46-2.28C32.44,19.32,32.63,26.6,37.52,22,37.14,21.42,36.76,20.8,36.37,20.19Zm1.75,29.53c-4.42,3.85-7.1,6.08-7.79,6.83L16.52,75.28,2.75,65.64,16.35,45c-1.68-7.93,2.5-24.6,2.45-32.11,5.06-3.05,2.3,9.92,3.76,12.22.79,3.08,3.36,3.63,4.85,1.2-.47-.54-.95-1.05-1.41-1.56-.41.83-.75,1.09-.84,1.1-3-3.65,1.48-14-4.56-15.46a4.45,4.45,0,0,0-3.83,1.7c.29,7.89-4.07,24.2-2.48,32.4l-13.21,20L0,66.16,17,78l14.9-20.23c.76-.69,3.68-3.21,7.76-6.75ZM37,.08c-5-.72-4.49,3.8-6.09,7.86-1.15,3.63-2.54,8-3.37,11.41a3.23,3.23,0,0,1,2.14-.29c1.15-4.62,3.64-11.74,4.81-16a1.6,1.6,0,0,1,2-1c2.84,1.6-.36,5.77-1,9a4.18,4.18,0,0,1,2.24-.38C39.12,7,41.38,1.08,37,.08Zm-.64,20.11a3.61,3.61,0,0,1-1.23,1.26c0-.07-.3-.49,0-2.33,0-.19.08-.38.12-.59-.49-.78-1-1.55-1.46-2.28C32.44,19.32,32.63,26.6,37.52,22,37.14,21.42,36.76,20.8,36.37,20.19Z"/><path id="right" d="M82.79,70.49l-12-19c1.8-7.65-1.87-22.94-1.29-30.28a4.44,4.44,0,0,0-3.73-1.77c-5.85,1.18-2,10.71-4.88,14.24C58.3,29.06,58.17,22.2,56.11,17c-1.09-2.55-.68-6.11-3.26-7.48-11.35-2-.11,14.52-1.39,19.66-4.2-3.86-8.79-16.94-13.65-18.61-2.9-.29-6,2.61-4,5.56,2.69,4.13,7.32,11.62,9.11,14.72,3.22,6.73-3.23-.42-5.63-3.69-3.92-4.34-8-12.47-12-5.41-1.72,3.72,14.46,15.33,11.88,18-1.73-1.22-11.12-11-13.15-4.27,1,5.52,9.89,9.25,15.6,15.53,6.49,5.77,12.74,11.42,13.73,12.37C54,64.28,66.74,82.34,67,82.78c2.32-1.46,14.52-9.16,16.84-10.6ZM67.56,80.08C67.35,79.84,55,62.13,54.72,62c-2-1.88-22.61-20.52-26.82-23.57-3.75-2.79-1-4.33,1.81-2,4.55,3.48,5.92,4.76,7.35,6,1.79-.79,3.87-3.54,1.53-6-3.3-3.77-7.3-8.82-11.07-12.86-1-1.11.21-2.16,1.24-2.46,2.25.55,4,4.46,7,7.44,3.78,3.94,3.89,6.38,7.7,7.11,2.41-.36,3.26-1.88,1.2-5.71-2.78-4.7-6.1-10-9.17-14.78-.88-1.65.74-2.4,1.92-2.51,1.38.06,1.47,1.23,2.41,2.46,2.77,4.4,6.11,9.71,8.87,14,2.42,4.24,5.86,1.47,4.75-2.15-.75-4.3-2.88-9.26-3.7-13.46-.35-1.66.64-2.51,2-2.17,1.87,1,1.57,4.53,2.58,6.66,2.08,5.39,2.13,11.74,4.81,16.76C63,38.27,64.31,31,64.18,27.73c.25-2.63-.09-8,3.28-5.78-.3,7,3.15,22.62,1.28,30L81.1,71.55Z"/></g></g></svg>