<svg xmlns="http://www.w3.org/2000/svg" viewBox="0 0 87 87"><defs><style>.cls-1,.cls-2{fill:none;stroke-linecap:round;stroke-width:2px;}.cls-1{stroke:#000;}.cls-2{stroke:#ef0d33;}</style></defs><g id="Layer_2" data-name="Layer 2"><g id="champion_cup" data-name="champion cup"><g id="cup"><path class="cls-1" d="M14,28V10H3a1.94,1.94,0,0,0-1.39.6A2.16,2.16,0,0,0,1,12.11v3.1A21.26,21.26,0,0,0,5.37,28.1a20,20,0,0,0,9.44,6.78A30.68,30.68,0,0,1,14,28Z"/><path class="cls-1" d="M66.26,75l-2.67-8.38h0A5.19,5.19,0,0,0,61.76,64a4.83,4.83,0,0,0-2.9-1H51V50.1l.62-.26a22.91,22.91,0,0,0,7.63-5.25,24.11,24.11,0,0,0,5.08-8A24.93,24.93,0,0,0,66,27.94V9.32a8.62,8.62,0,0,0-2.31-5.9A7.55,7.55,0,0,0,58.19,1H28.81a7.55,7.55,0,0,0-5.5,2.42A8.62,8.62,0,0,0,21,9.32V28a25.13,25.13,0,0,0,1.55,8.68,24.08,24.08,0,0,0,5.13,8,23,23,0,0,0,7.69,5.24l.63.26V63H28.14a4.83,4.83,0,0,0-2.9,1,5.19,5.19,0,0,0-1.83,2.6h0L20.74,75h0a8.85,8.85,0,0,0-.32,3.93,8.64,8.64,0,0,0,1.42,3.65,8.22,8.22,0,0,0,2.84,2.54,7.66,7.66,0,0,0,3.61.92H58.71a7.66,7.66,0,0,0,3.61-.92,8.22,8.22,0,0,0,2.84-2.54,8.64,8.64,0,0,0,1.42-3.65A8.85,8.85,0,0,0,66.26,75Z"/><path class="cls-1" d="M85.4,10.6A1.94,1.94,0,0,0,84,10H73V28h0a30.68,30.68,0,0,1-.81,6.89,20,20,0,0,0,9.44-6.78A21.26,21.26,0,0,0,86,15.21v-3.1A2.16,2.16,0,0,0,85.4,10.6Z"/></g><path id="star" class="cls-2" d="M38.05,26.36a1.24,1.24,0,0,1,.38,1.35l-.91,4.12a1.29,1.29,0,0,0,1.9,1.43L42.93,31a1.25,1.25,0,0,1,1.29,0l3.51,2.22a1.29,1.29,0,0,0,1.91-1.43l-1-4.2A1.76,1.76,0,0,1,49,26.28l3.12-2.78a1.32,1.32,0,0,0-.76-2.3l-4-.31a1.27,1.27,0,0,1-1.06-.8l-1.6-4a1.26,1.26,0,0,0-2.37,0l-1.6,4a1.15,1.15,0,0,1-1.06.8l-4.12.31a1.33,1.33,0,0,0-.76,2.3Z"/></g></g></svg>