<svg width="119" height="119" viewBox="0 0 119 119" fill="none" xmlns="http://www.w3.org/2000/svg">
<rect x="42.5791" y="52.7368" width="32.8421" height="31.4737" rx="1" stroke="#111517" stroke-width="2"/>
<path d="M42.5791 63.0001H75.4212" stroke="#111517" stroke-width="2"/>
<path d="M42.5791 71.8945H63.1054V84.2103" stroke="#111517" stroke-width="2"/>
<path d="M52.8424 62.3158V52.7368" stroke="#111517" stroke-width="2"/>
<path d="M52.8424 82.8421V73.2632" stroke="#111517" stroke-width="2"/>
<path d="M65.1583 62.3158V52.7368" stroke="#111517" stroke-width="2"/>
<path fill-rule="evenodd" clip-rule="evenodd" d="M33 27C33 25.3431 34.3431 24 36 24L68.9744 24C69.5069 24 70.0174 24.2123 70.3928 24.59L84.4184 38.6984C84.7909 39.0731 85 39.58 85 40.1084V92.1579C85 93.8147 83.6569 95.1579 82 95.1579H36C34.3431 95.1579 33 93.8148 33 92.1579V27Z" stroke="#EF0D33" stroke-width="2"/>
</svg>
