<svg width="69" height="71" viewBox="0 0 69 71" fill="none" xmlns="http://www.w3.org/2000/svg">
<g filter="url(#filter0_d)">
<circle cx="32" cy="32" r="20" fill="url(#paint0_linear)"/>
</g>
<circle cx="32" cy="32.0002" r="16.8" fill="url(#paint1_linear)"/>
<circle cx="32" cy="31.9998" r="15.2" fill="url(#paint2_linear)"/>
<path d="M36.981 38V35.36H30.121C30.121 34.94 30.221 34.6 30.401 34.32C30.561 34.1 30.801 33.88 31.141 33.68C31.481 33.48 32.181 33.12 33.201 32.6C34.261 32.06 34.961 31.64 35.701 30.92C36.481 30.18 36.881 29.22 36.881 28.08C36.881 26.72 36.441 25.66 35.541 24.88C34.661 24.1 33.541 23.7 32.181 23.7C29.081 23.7 27.201 25.42 27.021 28.48L29.581 28.82C29.761 27 30.581 26.1 32.041 26.1C33.421 26.1 34.321 26.86 34.321 27.9C34.321 28.6 34.141 29.08 33.561 29.54C33.261 29.76 33.001 29.96 32.761 30.1C32.541 30.24 32.161 30.42 31.621 30.68L31.221 30.88C29.621 31.68 28.561 32.38 28.061 32.98C27.441 33.7 27.141 34.7 27.141 35.98V38H36.981Z" fill="#4F545C"/>
<defs>
<filter id="filter0_d" x="-4.34054" y="-1.76045" width="72.6811" height="72.6811" filterUnits="userSpaceOnUse" color-interpolation-filters="sRGB">
<feFlood flood-opacity="0" result="BackgroundImageFix"/>
<feColorMatrix in="SourceAlpha" type="matrix" values="0 0 0 0 0 0 0 0 0 0 0 0 0 0 0 0 0 0 127 0"/>
<feOffset dy="2.58009"/>
<feGaussianBlur stdDeviation="8.17027"/>
<feColorMatrix type="matrix" values="0 0 0 0 0 0 0 0 0 0.2 0 0 0 0 0.4 0 0 0 0.16 0"/>
<feBlend mode="normal" in2="BackgroundImageFix" result="effect1_dropShadow"/>
<feBlend mode="normal" in="SourceGraphic" in2="effect1_dropShadow" result="shape"/>
</filter>
<linearGradient id="paint0_linear" x1="12" y1="12" x2="52" y2="52" gradientUnits="userSpaceOnUse">
<stop stop-color="#D3E1F2"/>
<stop offset="1" stop-color="#52565A"/>
</linearGradient>
<linearGradient id="paint1_linear" x1="15.2" y1="15.2002" x2="48.8" y2="48.8002" gradientUnits="userSpaceOnUse">
<stop stop-color="#52565A"/>
<stop offset="1" stop-color="#D3E1F2"/>
</linearGradient>
<linearGradient id="paint2_linear" x1="16.8" y1="16.7998" x2="47.2" y2="47.1998" gradientUnits="userSpaceOnUse">
<stop stop-color="#EBF3FB"/>
<stop offset="1" stop-color="#B0B8C8"/>
</linearGradient>
</defs>
</svg>
