<svg width="69" height="71" viewBox="0 0 69 71" fill="none" xmlns="http://www.w3.org/2000/svg">
<g filter="url(#filter0_d)">
<circle cx="32" cy="32" r="20" fill="url(#paint0_linear)"/>
</g>
<circle cx="32" cy="32.0002" r="16.8" fill="url(#paint1_linear)"/>
<circle cx="32" cy="31.9998" r="15.2" fill="url(#paint2_linear)"/>
<path d="M26.6722 33.42C27.0522 36.64 29.0922 38.3 32.1322 38.3C33.7122 38.3 34.9322 37.9 35.8122 37.08C36.6922 36.26 37.1322 35.24 37.1322 34.02C37.1322 32.94 36.8522 32.1 36.3122 31.52C35.7722 30.92 35.2322 30.56 34.6722 30.44V30.38C35.0922 30.24 35.5122 29.96 35.8922 29.5C36.2722 29.04 36.4722 28.4 36.4722 27.56C36.4722 26.38 36.0522 25.46 35.2122 24.76C34.3922 24.06 33.3322 23.7 32.0722 23.7C29.4322 23.7 27.6122 25.26 27.3722 27.76L29.8322 28.22C30.0522 26.8 30.7522 26.1 31.9722 26.1C33.2322 26.1 33.9722 26.8 33.9722 27.94C33.9722 29.06 33.1522 29.66 31.8922 29.66H31.0722V31.78H31.9922C33.7322 31.78 34.6122 32.46 34.6122 33.84C34.6122 35.14 33.6922 35.9 32.1122 35.9C30.4922 35.9 29.5522 34.88 29.2922 32.86L26.6722 33.42Z" fill="#804721"/>
<defs>
<filter id="filter0_d" x="-4.34054" y="-1.76045" width="72.6811" height="72.6811" filterUnits="userSpaceOnUse" color-interpolation-filters="sRGB">
<feFlood flood-opacity="0" result="BackgroundImageFix"/>
<feColorMatrix in="SourceAlpha" type="matrix" values="0 0 0 0 0 0 0 0 0 0 0 0 0 0 0 0 0 0 127 0"/>
<feOffset dy="2.58009"/>
<feGaussianBlur stdDeviation="8.17027"/>
<feColorMatrix type="matrix" values="0 0 0 0 0 0 0 0 0 0.2 0 0 0 0 0.4 0 0 0 0.16 0"/>
<feBlend mode="normal" in2="BackgroundImageFix" result="effect1_dropShadow"/>
<feBlend mode="normal" in="SourceGraphic" in2="effect1_dropShadow" result="shape"/>
</filter>
<linearGradient id="paint0_linear" x1="12" y1="12" x2="52" y2="52" gradientUnits="userSpaceOnUse">
<stop stop-color="#F5B889"/>
<stop offset="1" stop-color="#8A4312"/>
</linearGradient>
<linearGradient id="paint1_linear" x1="15.2" y1="15.2002" x2="48.8" y2="48.8002" gradientUnits="userSpaceOnUse">
<stop stop-color="#8A4312"/>
<stop offset="1" stop-color="#F5B889"/>
</linearGradient>
<linearGradient id="paint2_linear" x1="16.8" y1="16.7998" x2="47.2" y2="47.1998" gradientUnits="userSpaceOnUse">
<stop stop-color="#FBD3BA"/>
<stop offset="1" stop-color="#C66823"/>
</linearGradient>
</defs>
</svg>
