<svg width="18" height="18" viewBox="0 0 18 18" fill="none" xmlns="http://www.w3.org/2000/svg">
<path d="M13.2931 10.8502L16.7444 7.8685C17.2324 7.4453 16.9798 6.61542 16.3406 6.58027L11.8963 6.29767C11.6267 6.27975 11.3912 6.10329 11.29 5.83862L9.65637 1.46318C9.42094 0.845606 8.59559 0.845606 8.36016 1.46318L6.72723 5.82132C6.62595 6.086 6.39051 6.26245 6.12087 6.28038L1.6594 6.56298C1.02017 6.59813 0.767633 7.4273 1.25562 7.85052L4.70694 10.8151C4.90883 10.9915 5.01012 11.2913 4.94237 11.556L3.81451 16.0906C3.66325 16.7261 4.31958 17.2375 4.85819 16.8846L8.61273 14.3612C8.84816 14.2027 9.1349 14.2027 9.35323 14.3612L13.1241 16.8846C13.6627 17.2375 14.3197 16.7261 14.1678 16.0906L13.0399 11.5731C12.9899 11.3091 13.0741 11.0265 13.2931 10.8501L13.2931 10.8502Z" fill="#FF0000"/>
</svg>
