<svg width="242" height="209" viewBox="0 0 242 209" fill="none" xmlns="http://www.w3.org/2000/svg">
<path d="M15.3952 29.0112V53.6218H30.0315V64.6803H15.3952V101H4.33668V17.9526H30.7904V29.0112H15.3952ZM57.9268 101L55.7585 82.5691H43.5074L41.339 101H30.2805L41.4474 17.9526H57.71L68.9853 101H57.9268ZM50.0124 34.9741C50.0124 33.9622 49.9762 32.9865 49.904 32.0468C49.8317 31.0349 49.7233 30.0231 49.5787 29.0112C49.3619 30.9627 49.2535 32.9503 49.2535 34.9741L44.9168 71.5106H54.3491L50.0124 34.9741ZM107.085 85.0627C107.085 88.1707 106.616 90.8449 105.676 93.0856C104.809 95.2539 103.58 97.0247 101.99 98.398C100.4 99.7713 98.5566 100.783 96.4606 101.434C94.4368 102.084 92.2684 102.409 89.9555 102.409C87.6427 102.409 85.4382 102.084 83.3421 101.434C81.3183 100.783 79.5114 99.7713 77.9213 98.398C76.3312 96.9524 75.0663 95.1455 74.1267 92.9771C73.2593 90.7365 72.8257 88.0984 72.8257 85.0627V33.8899C72.8257 30.8543 73.2593 28.2522 74.1267 26.0839C75.0663 23.8433 76.3312 22.0363 77.9213 20.6631C79.5114 19.2175 81.3183 18.1695 83.3421 17.519C85.4382 16.8685 87.6427 16.5432 89.9555 16.5432C92.2684 16.5432 94.4368 16.8685 96.4606 17.519C98.5566 18.1695 100.4 19.1814 101.99 20.5546C103.58 21.9279 104.809 23.7349 105.676 25.9755C106.616 28.1438 107.085 30.782 107.085 33.8899V46.9H96.0269V35.2993C96.0269 32.2637 95.3764 30.1315 94.0754 28.9027C92.8467 27.674 91.4734 27.0597 89.9555 27.0597C88.4377 27.0597 87.0283 27.674 85.7273 28.9027C84.4986 30.1315 83.8842 32.2637 83.8842 35.2993V83.6533C83.8842 86.689 84.4986 88.8212 85.7273 90.0499C87.0283 91.2786 88.4377 91.893 89.9555 91.893C91.4734 91.893 92.8467 91.2786 94.0754 90.0499C95.3764 88.8212 96.0269 86.689 96.0269 83.6533V73.2453H107.085V85.0627ZM114.659 101V17.9526H141.113V29.0112H125.718V53.6218H140.354V64.6803H125.718V89.9415H141.113V101H114.659ZM47.4866 193V130.118L48.2455 124.155L46.5109 129.901L36.7533 193H25.9116L16.371 129.901L14.6363 124.155L15.3952 130.118V193H4.33668V109.953H22.2255L30.8988 166.004L31.4409 173.485L31.983 165.896L40.6563 109.953H58.5451V193H47.4866ZM90.5366 193L88.3683 174.569H76.1171L73.9488 193H62.8903L74.0572 109.953H90.3198L101.595 193H90.5366ZM82.6222 126.974C82.6222 125.962 82.586 124.986 82.5137 124.047C82.4415 123.035 82.333 122.023 82.1885 121.011C81.9717 122.963 81.8632 124.95 81.8632 126.974L77.5266 163.511H86.9588L82.6222 126.974ZM119.73 121.011V193H108.671V121.011H98.3714V109.953H130.029V121.011H119.73ZM168.599 177.063C168.599 180.171 168.13 182.845 167.19 185.086C166.323 187.254 165.094 189.025 163.504 190.398C161.914 191.771 160.071 192.783 157.974 193.434C155.951 194.084 153.782 194.409 151.469 194.409C149.157 194.409 146.952 194.084 144.856 193.434C142.832 192.783 141.025 191.771 139.435 190.398C137.845 188.952 136.58 187.145 135.641 184.977C134.773 182.737 134.34 180.098 134.34 177.063V125.89C134.34 122.854 134.773 120.252 135.641 118.084C136.58 115.843 137.845 114.036 139.435 112.663C141.025 111.218 142.832 110.169 144.856 109.519C146.952 108.868 149.157 108.543 151.469 108.543C153.782 108.543 155.951 108.868 157.974 109.519C160.071 110.169 161.914 111.181 163.504 112.555C165.094 113.928 166.323 115.735 167.19 117.975C168.13 120.144 168.599 122.782 168.599 125.89V138.9H157.541V127.299C157.541 124.264 156.89 122.131 155.589 120.903C154.361 119.674 152.987 119.06 151.469 119.06C149.952 119.06 148.542 119.674 147.241 120.903C146.012 122.131 145.398 124.264 145.398 127.299V175.653C145.398 178.689 146.012 180.821 147.241 182.05C148.542 183.279 149.952 183.893 151.469 183.893C152.987 183.893 154.361 183.279 155.589 182.05C156.89 180.821 157.541 178.689 157.541 175.653V165.245H168.599V177.063ZM199.374 193V156.138H187.232V193H176.173V109.953H187.232V145.08H199.374V109.953H210.433V193H199.374Z" fill="#111517"/>
<path d="M217 117.871V201H210L210 117.871L210 101H217V117.871Z" fill="#EF0D33"/>
</svg>
